<svg width="26" height="28" viewBox="0 0 26 28" fill="none" xmlns="http://www.w3.org/2000/svg">
<g filter="url(#filter0_d_50_1384)">
<path d="M20.5 4.98333C17.725 4.70833 14.9333 4.56667 12.15 4.56667C10.5 4.56667 8.85 4.65 7.2 4.81667L5.5 4.98333" stroke="#ED303D" stroke-width="1.5" stroke-linecap="round" stroke-linejoin="round"/>
<path d="M10.0833 4.14166L10.2667 3.05C10.4 2.25833 10.5 1.66666 11.9083 1.66666H14.0917C15.5 1.66666 15.6083 2.29166 15.7333 3.05833L15.9167 4.14166" stroke="#ED303D" stroke-width="1.5" stroke-linecap="round" stroke-linejoin="round"/>
<path d="M18.7083 7.61667L18.1667 16.0083C18.075 17.3167 18 18.3333 15.675 18.3333H10.325C8 18.3333 7.92501 17.3167 7.83334 16.0083L7.29167 7.61667" stroke="#ED303D" stroke-width="1.5" stroke-linecap="round" stroke-linejoin="round"/>
<path d="M11.6083 13.75H14.3833" stroke="#ED303D" stroke-width="1.5" stroke-linecap="round" stroke-linejoin="round"/>
<path d="M10.9167 10.4167H15.0833" stroke="#ED303D" stroke-width="1.5" stroke-linecap="round" stroke-linejoin="round"/>
</g>
<defs>
<filter id="filter0_d_50_1384" x="-1" y="0" width="28" height="28" filterUnits="userSpaceOnUse" color-interpolation-filters="sRGB">
<feFlood flood-opacity="0" result="BackgroundImageFix"/>
<feColorMatrix in="SourceAlpha" type="matrix" values="0 0 0 0 0 0 0 0 0 0 0 0 0 0 0 0 0 0 127 0" result="hardAlpha"/>
<feOffset dy="4"/>
<feGaussianBlur stdDeviation="2"/>
<feComposite in2="hardAlpha" operator="out"/>
<feColorMatrix type="matrix" values="0 0 0 0 0 0 0 0 0 0 0 0 0 0 0 0 0 0 0.25 0"/>
<feBlend mode="normal" in2="BackgroundImageFix" result="effect1_dropShadow_50_1384"/>
<feBlend mode="normal" in="SourceGraphic" in2="effect1_dropShadow_50_1384" result="shape"/>
</filter>
</defs>
</svg>
