<svg width="30" height="32" viewBox="0 0 30 32" fill="none" xmlns="http://www.w3.org/2000/svg">
<g filter="url(#filter0_d_50_154)">
<path d="M9.5 7.67001V6.70001C9.5 4.45001 11.31 2.24001 13.56 2.03001C16.24 1.77001 18.5 3.88001 18.5 6.51001V7.89001" stroke="#292D32" stroke-width="1.5" stroke-miterlimit="10" stroke-linecap="round" stroke-linejoin="round" shape-rendering="crispEdges"/>
</g>
<g filter="url(#filter1_d_50_154)">
<path d="M11 22H17C21.02 22 21.74 20.39 21.95 18.43L22.7 12.43C22.97 9.99 22.27 8 18 8H10C5.73001 8 5.03001 9.99 5.30001 12.43L6.05001 18.43C6.26001 20.39 6.98001 22 11 22Z" stroke="#292D32" stroke-width="1.5" stroke-miterlimit="10" stroke-linecap="round" stroke-linejoin="round" shape-rendering="crispEdges"/>
</g>
<g filter="url(#filter2_d_50_154)">
<path d="M17.4955 12H17.5045" stroke="#292D32" stroke-width="2" stroke-linecap="round" stroke-linejoin="round" shape-rendering="crispEdges"/>
</g>
<g filter="url(#filter3_d_50_154)">
<path d="M10.4945 12H10.5035" stroke="#292D32" stroke-width="2" stroke-linecap="round" stroke-linejoin="round" shape-rendering="crispEdges"/>
</g>
<g clip-path="url(#clip0_50_154)">
<rect x="14" y="16" width="16" height="16" rx="8" fill="#ED2E7E"/>
<path d="M18.163 24.908C18.163 24.622 18.1977 24.3273 18.267 24.024C18.345 23.712 18.4837 23.3653 18.683 22.984C18.8823 22.594 19.1597 22.1607 19.515 21.684C19.8703 21.2073 20.3297 20.6613 20.893 20.046L20.295 19.513L20.815 18.902C21.647 19.5953 22.323 20.2237 22.843 20.787C23.363 21.3417 23.766 21.8487 24.052 22.308C24.3467 22.7673 24.5417 23.192 24.637 23.582C24.741 23.9633 24.793 24.3317 24.793 24.687C24.793 25.0597 24.7367 25.3847 24.624 25.662C24.5113 25.9307 24.364 26.1517 24.182 26.325C24 26.507 23.792 26.6413 23.558 26.728C23.3327 26.8147 23.1073 26.858 22.882 26.858C22.5527 26.858 22.2667 26.7973 22.024 26.676C21.79 26.5633 21.595 26.4117 21.439 26.221C21.2657 26.4377 21.049 26.598 20.789 26.702C20.529 26.806 20.2733 26.858 20.022 26.858C19.45 26.858 18.995 26.6847 18.657 26.338C18.3277 25.9913 18.163 25.5147 18.163 24.908ZM23.987 24.7C23.987 24.4573 23.9523 24.193 23.883 23.907C23.8223 23.621 23.6967 23.309 23.506 22.971C23.324 22.633 23.0683 22.269 22.739 21.879C22.4097 21.4803 21.9807 21.047 21.452 20.579C20.594 21.4457 19.9657 22.2213 19.567 22.906C19.1683 23.5907 18.969 24.1973 18.969 24.726C18.969 25.142 19.073 25.454 19.281 25.662C19.489 25.87 19.7577 25.974 20.087 25.974C20.217 25.974 20.347 25.9523 20.477 25.909C20.6157 25.8657 20.737 25.8007 20.841 25.714C20.9537 25.6187 21.0403 25.5017 21.101 25.363C21.1703 25.2157 21.205 25.0423 21.205 24.843V23.946H21.985V24.765C21.985 24.9383 21.9677 25.0857 21.933 25.207C21.907 25.3283 21.8767 25.4367 21.842 25.532C21.9633 25.6707 22.1107 25.779 22.284 25.857C22.4573 25.935 22.6437 25.974 22.843 25.974C23.155 25.974 23.4237 25.8657 23.649 25.649C23.8743 25.4323 23.987 25.116 23.987 24.7Z" fill="white"/>
</g>
<defs>
<filter id="filter0_d_50_154" x="4.75" y="1.25821" width="18.5" height="15.3818" filterUnits="userSpaceOnUse" color-interpolation-filters="sRGB">
<feFlood flood-opacity="0" result="BackgroundImageFix"/>
<feColorMatrix in="SourceAlpha" type="matrix" values="0 0 0 0 0 0 0 0 0 0 0 0 0 0 0 0 0 0 127 0" result="hardAlpha"/>
<feOffset dy="4"/>
<feGaussianBlur stdDeviation="2"/>
<feComposite in2="hardAlpha" operator="out"/>
<feColorMatrix type="matrix" values="0 0 0 0 0 0 0 0 0 0 0 0 0 0 0 0 0 0 0.25 0"/>
<feBlend mode="normal" in2="BackgroundImageFix" result="effect1_dropShadow_50_154"/>
<feBlend mode="normal" in="SourceGraphic" in2="effect1_dropShadow_50_154" result="shape"/>
</filter>
<filter id="filter1_d_50_154" x="0.499268" y="7.25" width="27.0015" height="23.5" filterUnits="userSpaceOnUse" color-interpolation-filters="sRGB">
<feFlood flood-opacity="0" result="BackgroundImageFix"/>
<feColorMatrix in="SourceAlpha" type="matrix" values="0 0 0 0 0 0 0 0 0 0 0 0 0 0 0 0 0 0 127 0" result="hardAlpha"/>
<feOffset dy="4"/>
<feGaussianBlur stdDeviation="2"/>
<feComposite in2="hardAlpha" operator="out"/>
<feColorMatrix type="matrix" values="0 0 0 0 0 0 0 0 0 0 0 0 0 0 0 0 0 0 0.25 0"/>
<feBlend mode="normal" in2="BackgroundImageFix" result="effect1_dropShadow_50_154"/>
<feBlend mode="normal" in="SourceGraphic" in2="effect1_dropShadow_50_154" result="shape"/>
</filter>
<filter id="filter2_d_50_154" x="12.4955" y="11" width="10.009" height="10" filterUnits="userSpaceOnUse" color-interpolation-filters="sRGB">
<feFlood flood-opacity="0" result="BackgroundImageFix"/>
<feColorMatrix in="SourceAlpha" type="matrix" values="0 0 0 0 0 0 0 0 0 0 0 0 0 0 0 0 0 0 127 0" result="hardAlpha"/>
<feOffset dy="4"/>
<feGaussianBlur stdDeviation="2"/>
<feComposite in2="hardAlpha" operator="out"/>
<feColorMatrix type="matrix" values="0 0 0 0 0 0 0 0 0 0 0 0 0 0 0 0 0 0 0.25 0"/>
<feBlend mode="normal" in2="BackgroundImageFix" result="effect1_dropShadow_50_154"/>
<feBlend mode="normal" in="SourceGraphic" in2="effect1_dropShadow_50_154" result="shape"/>
</filter>
<filter id="filter3_d_50_154" x="5.49451" y="11" width="10.009" height="10" filterUnits="userSpaceOnUse" color-interpolation-filters="sRGB">
<feFlood flood-opacity="0" result="BackgroundImageFix"/>
<feColorMatrix in="SourceAlpha" type="matrix" values="0 0 0 0 0 0 0 0 0 0 0 0 0 0 0 0 0 0 127 0" result="hardAlpha"/>
<feOffset dy="4"/>
<feGaussianBlur stdDeviation="2"/>
<feComposite in2="hardAlpha" operator="out"/>
<feColorMatrix type="matrix" values="0 0 0 0 0 0 0 0 0 0 0 0 0 0 0 0 0 0 0.25 0"/>
<feBlend mode="normal" in2="BackgroundImageFix" result="effect1_dropShadow_50_154"/>
<feBlend mode="normal" in="SourceGraphic" in2="effect1_dropShadow_50_154" result="shape"/>
</filter>
<clipPath id="clip0_50_154">
<rect x="14" y="16" width="16" height="16" rx="8" fill="white"/>
</clipPath>
</defs>
</svg>
