<svg width="14" height="16" viewBox="0 0 14 16" fill="none" xmlns="http://www.w3.org/2000/svg">
<path d="M4.75 1.34375C4.75 1.085 4.96 0.875 5.21875 0.875H8.78125C8.90557 0.875 9.0248 0.924386 9.11271 1.01229C9.20061 1.1002 9.25 1.21943 9.25 1.34375C9.25 1.46807 9.20061 1.5873 9.11271 1.67521C9.0248 1.76311 8.90557 1.8125 8.78125 1.8125H5.21875C4.96 1.8125 4.75 1.6025 4.75 1.34375ZM6.53125 9.03125C6.53125 9.15557 6.58064 9.2748 6.66854 9.36271C6.75645 9.45061 6.87568 9.5 7 9.5C7.12432 9.5 7.24355 9.45061 7.33146 9.36271C7.41936 9.2748 7.46875 9.15557 7.46875 9.03125V5.46875C7.46875 5.34443 7.41936 5.2252 7.33146 5.13729C7.24355 5.04939 7.12432 5 7 5C6.87568 5 6.75645 5.04939 6.66854 5.13729C6.58064 5.2252 6.53125 5.34443 6.53125 5.46875V9.03125ZM7 2.75C3.47913 2.75 0.625 5.60413 0.625 9.125C0.625 12.6459 3.47913 15.5 7 15.5C10.5209 15.5 13.375 12.6459 13.375 9.125C13.375 5.60413 10.5209 2.75 7 2.75ZM1.5625 9.125C1.5625 6.122 3.997 3.6875 7 3.6875C10.003 3.6875 12.4375 6.122 12.4375 9.125C12.4375 12.128 10.003 14.5625 7 14.5625C3.997 14.5625 1.5625 12.128 1.5625 9.125ZM12.3006 2.88687C12.2127 2.79896 12.0935 2.74956 11.9691 2.74956C11.8448 2.74956 11.7255 2.79896 11.6376 2.88687C11.5497 2.97479 11.5003 3.09404 11.5003 3.21837C11.5003 3.34271 11.5497 3.46196 11.6376 3.54988L12.5751 4.48738C12.6187 4.53091 12.6703 4.56544 12.7272 4.589C12.7841 4.61256 12.8451 4.62469 12.9066 4.62469C12.9682 4.62469 13.0292 4.61256 13.086 4.589C13.1429 4.56544 13.1946 4.53091 13.2381 4.48738C13.2817 4.44384 13.3162 4.39216 13.3398 4.33528C13.3633 4.2784 13.3754 4.21744 13.3754 4.15587C13.3754 4.09431 13.3633 4.03335 13.3398 3.97647C13.3162 3.91959 13.2817 3.86791 13.2381 3.82437L12.3006 2.88687Z" fill="#B0B0B0"/>
</svg>
