<svg width="7" height="7" viewBox="0 0 7 7" fill="none" xmlns="http://www.w3.org/2000/svg">
<path d="M6.82969 3.07431L5.42032 4.30431L5.84251 6.13556C5.86485 6.23129 5.85847 6.33149 5.82418 6.42362C5.78989 6.51575 5.7292 6.59572 5.6497 6.65355C5.5702 6.71137 5.47542 6.74448 5.3772 6.74873C5.27899 6.75297 5.1817 6.72818 5.09751 6.67744L3.50032 5.70869L1.90657 6.67744C1.82237 6.72818 1.72509 6.75297 1.62687 6.74873C1.52866 6.74448 1.43388 6.71137 1.35438 6.65355C1.27488 6.59572 1.21419 6.51575 1.1799 6.42362C1.1456 6.33149 1.13923 6.23129 1.16157 6.13556L1.58313 4.30619L0.173444 3.07431C0.0988847 3.01001 0.0449701 2.92512 0.0184619 2.8303C-0.00804629 2.73547 -0.00596816 2.63493 0.0244357 2.54128C0.0548395 2.44764 0.112216 2.36505 0.189369 2.30388C0.266522 2.24271 0.360018 2.20568 0.458132 2.19744L2.31626 2.0365L3.04157 0.3065C3.07945 0.215724 3.14333 0.138184 3.22519 0.0836431C3.30705 0.0291025 3.40321 0 3.50157 0C3.59993 0 3.69609 0.0291025 3.77795 0.0836431C3.8598 0.138184 3.92369 0.215724 3.96157 0.3065L4.68907 2.0365L6.54657 2.19744C6.64468 2.20568 6.73818 2.24271 6.81533 2.30388C6.89249 2.36505 6.94986 2.44764 6.98027 2.54128C7.01067 2.63493 7.01275 2.73547 6.98624 2.8303C6.95973 2.92512 6.90582 3.01001 6.83126 3.07431H6.82969Z" fill="#FCBC3A"/>
</svg>
